<?xml version="1.0" encoding="UTF-8" standalone="no"?>
<!DOCTYPE svg PUBLIC "-//W3C//DTD SVG 1.1//EN" "http://www.w3.org/Graphics/SVG/1.1/DTD/svg11.dtd">
<svg width="988.00" height="597.00" viewBox="0.00 0.00 988.00 597.00" xmlns="http://www.w3.org/2000/svg" xmlns:xlink="http://www.w3.org/1999/xlink">
<g stroke-linecap="round" id="Layer_1">
<path d="M76.67,190.00 Q540.35,-74.10 868.92,176.55" fill="none" stroke="rgb(255, 255, 255)" stroke-width="100.00" stroke-opacity="1.00" stroke-linejoin="round"/>
<path d="M92.21,182.36" fill="none" stroke="rgb(255, 255, 255)" stroke-width="120.00" stroke-opacity="1.00" stroke-linejoin="round"/>
<path d="M92.21,182.36 L140.70,145.48" fill="none" stroke="rgb(255, 255, 255)" stroke-width="120.00" stroke-opacity="1.00" stroke-linejoin="round"/>
<path d="M140.70,145.48" fill="none" stroke="rgb(255, 255, 255)" stroke-width="120.00" stroke-opacity="1.00" stroke-linejoin="round"/>
<path d="M140.70,145.48 L193.29,118.84" fill="none" stroke="rgb(255, 255, 255)" stroke-width="120.00" stroke-opacity="1.00" stroke-linejoin="round"/>
<path d="M193.29,118.84" fill="none" stroke="rgb(255, 255, 255)" stroke-width="120.00" stroke-opacity="1.00" stroke-linejoin="round"/>
<path d="M193.29,118.84 L274.57,90.84" fill="none" stroke="rgb(255, 255, 255)" stroke-width="120.00" stroke-opacity="1.00" stroke-linejoin="round"/>
<path d="M274.57,90.84" fill="none" stroke="rgb(255, 255, 255)" stroke-width="120.00" stroke-opacity="1.00" stroke-linejoin="round"/>
<path d="M274.57,90.84 L386.59,71.03" fill="none" stroke="rgb(255, 255, 255)" stroke-width="120.00" stroke-opacity="1.00" stroke-linejoin="round"/>
<path d="M386.59,71.03" fill="none" stroke="rgb(255, 255, 255)" stroke-width="120.00" stroke-opacity="1.00" stroke-linejoin="round"/>
<path d="M386.59,71.03 L475.38,64.89" fill="none" stroke="rgb(255, 255, 255)" stroke-width="120.00" stroke-opacity="1.00" stroke-linejoin="round"/>
<path d="M475.38,64.89" fill="none" stroke="rgb(255, 255, 255)" stroke-width="120.00" stroke-opacity="1.00" stroke-linejoin="round"/>
<path d="M79.91,198.07" fill="none" stroke="rgb(255, 255, 255)" stroke-width="120.00" stroke-opacity="1.00" stroke-linejoin="round"/>
<path d="M79.91,198.07 L64.89,226.76" fill="none" stroke="rgb(255, 255, 255)" stroke-width="120.00" stroke-opacity="1.00" stroke-linejoin="round"/>
<path d="M64.89,226.76" fill="none" stroke="rgb(255, 255, 255)" stroke-width="120.00" stroke-opacity="1.00" stroke-linejoin="round"/>
<path d="M64.89,226.76 L63.52,247.93" fill="none" stroke="rgb(255, 255, 255)" stroke-width="120.00" stroke-opacity="1.00" stroke-linejoin="round"/>
<path d="M63.52,247.93" fill="none" stroke="rgb(255, 255, 255)" stroke-width="120.00" stroke-opacity="1.00" stroke-linejoin="round"/>
<path d="M63.52,247.93 L72.40,274.57" fill="none" stroke="rgb(255, 255, 255)" stroke-width="120.00" stroke-opacity="1.00" stroke-linejoin="round"/>
<path d="M72.40,274.57" fill="none" stroke="rgb(255, 255, 255)" stroke-width="120.00" stroke-opacity="1.00" stroke-linejoin="round"/>
<path d="M72.40,274.57 L94.26,303.26" fill="none" stroke="rgb(255, 255, 255)" stroke-width="120.00" stroke-opacity="1.00" stroke-linejoin="round"/>
<path d="M94.26,303.26" fill="none" stroke="rgb(255, 255, 255)" stroke-width="120.00" stroke-opacity="1.00" stroke-linejoin="round"/>
<path d="M94.26,303.26 L140.70,340.82" fill="none" stroke="rgb(255, 255, 255)" stroke-width="120.00" stroke-opacity="1.00" stroke-linejoin="round"/>
<path d="M140.70,340.82" fill="none" stroke="rgb(255, 255, 255)" stroke-width="120.00" stroke-opacity="1.00" stroke-linejoin="round"/>
<path d="M140.70,340.82 L231.54,383.85" fill="none" stroke="rgb(255, 255, 255)" stroke-width="120.00" stroke-opacity="1.00" stroke-linejoin="round"/>
<path d="M231.54,383.85" fill="none" stroke="rgb(255, 255, 255)" stroke-width="120.00" stroke-opacity="1.00" stroke-linejoin="round"/>
<path d="M235.50,238.50 C245.90,236.30 278.51,232.26 293.84,230.03 C302.26,229.01 322.07,226.57 324.00,226.50 C326.69,226.41 370.03,226.65 371.99,226.62 C375.94,226.54 385.09,225.13 386.25,225.00 C390.94,224.57 393.46,223.95 397.30,222.32 C404.76,219.10 410.73,217.54 422.23,215.11 C427.33,213.99 432.50,212.61 434.25,211.50 C436.89,209.82 440.39,208.77 444.31,208.62 C467.62,207.85 480.18,208.89 480.75,208.50 C481.28,208.14 482.86,205.91 483.75,205.50 C483.86,205.45 591.89,205.52 595.65,205.34 C597.15,205.28 599.68,206.69 600.75,207.00 C601.23,207.15 601.80,206.79 602.25,207.00 C602.87,207.30 606.01,209.89 606.95,210.75 C607.94,211.68 609.07,214.36 609.75,215.25 C610.09,215.69 617.80,221.36 620.29,223.99 C621.42,225.15 622.97,227.87 623.25,228.00 C623.82,228.26 629.72,227.65 630.75,228.00 C631.14,228.13 634.18,230.62 636.75,232.50 C638.68,234.00 639.24,235.36 639.11,238.01 C638.93,240.26 639.10,244.95 639.00,245.25 C638.87,245.65 635.26,250.26 634.50,251.25 C633.44,252.56 617.48,260.53 611.43,263.14 C607.62,264.74 601.78,266.31 598.52,266.70 C595.30,267.06 575.90,266.97 567.58,266.92 C558.70,266.89 540.20,266.97 538.40,267.64 C534.75,269.01 517.30,272.93 514.22,273.23 C510.96,273.57 501.62,276.44 500.25,276.75 C497.91,277.27 490.40,277.74 488.25,278.25 C487.48,278.43 482.30,280.13 478.91,280.35 C475.44,280.56 382.53,280.51 346.52,280.49 C339.82,280.49 328.18,280.50 323.25,280.50 C323.25,280.50 323.25,292.50 323.25,292.50 C353.33,292.50 390.53,292.45 397.66,292.38 C400.88,292.42 407.85,295.69 408.75,295.50 C409.94,297.37 410.87,298.48 411.75,298.50 C412.75,298.54 415.59,298.67 417.92,300.01 C419.99,301.19 426.34,302.97 426.75,303.00 C427.25,303.05 429.29,303.51 431.25,305.25 C431.52,305.50 433.57,307.73 434.25,308.25 C435.47,309.16 443.73,311.10 444.00,311.25 C445.10,311.84 448.75,314.78 450.00,315.00 C451.23,315.23 456.05,315.05 457.50,315.75 C458.22,316.09 462.00,319.26 462.75,319.50 C463.41,319.70 503.32,319.42 504.00,319.50 C505.44,319.68 512.68,321.03 516.40,321.05 C532.33,321.12 565.10,321.12 581.95,321.06 C584.42,321.03 589.94,320.80 592.50,319.50 C593.13,319.17 600.88,315.06 604.87,313.88 C615.82,310.70 618.28,310.67 618.75,310.50 C619.80,310.11 620.67,309.31 621.75,309.00 C622.47,308.79 624.75,308.86 627.32,307.65 C629.91,306.46 633.27,304.59 633.75,304.50 C634.98,304.27 638.19,304.45 639.44,303.73 C640.59,303.05 643.29,303.29 644.25,303.00 C644.61,302.90 646.47,300.32 647.25,300.00 C647.99,299.68 651.36,300.12 651.75,300.00 C652.81,299.66 653.66,298.75 654.75,298.50 C655.72,298.27 656.79,298.77 657.75,298.50 C658.43,298.30 659.64,296.63 660.93,296.09 C662.21,295.51 665.57,295.91 666.75,295.50 C667.93,295.10 668.67,293.88 669.75,293.25 C670.94,292.55 673.78,292.67 674.25,292.50 C675.30,292.13 677.65,290.83 679.49,290.45 C679.83,290.38 723.85,279.75 742.13,275.31 C750.18,273.14 767.54,267.97 770.25,267.00 C777.68,264.29 787.14,259.68 789.98,257.41 C790.75,256.78 798.19,249.55 798.75,249.00" fill="none" stroke="rgb(255, 255, 255)" stroke-width="300.00" stroke-opacity="1.00" stroke-linejoin="round"/>
<path d="M653.64,79.23" fill="none" stroke="rgb(255, 255, 255)" stroke-width="120.00" stroke-opacity="1.00" stroke-linejoin="round"/>
<path d="M653.64,79.23 L737.65,100.74" fill="none" stroke="rgb(255, 255, 255)" stroke-width="120.00" stroke-opacity="1.00" stroke-linejoin="round"/>
<path d="M737.65,100.74" fill="none" stroke="rgb(255, 255, 255)" stroke-width="120.00" stroke-opacity="1.00" stroke-linejoin="round"/>
<path d="M737.65,100.74 L807.32,126.70" fill="none" stroke="rgb(255, 255, 255)" stroke-width="120.00" stroke-opacity="1.00" stroke-linejoin="round"/>
<path d="M807.32,126.70" fill="none" stroke="rgb(255, 255, 255)" stroke-width="120.00" stroke-opacity="1.00" stroke-linejoin="round"/>
<path d="M807.32,126.70 L854.11,153.34" fill="none" stroke="rgb(255, 255, 255)" stroke-width="120.00" stroke-opacity="1.00" stroke-linejoin="round"/>
<path d="M854.11,153.34" fill="none" stroke="rgb(255, 255, 255)" stroke-width="120.00" stroke-opacity="1.00" stroke-linejoin="round"/>
<path d="M854.11,153.34 L899.19,191.59" fill="none" stroke="rgb(255, 255, 255)" stroke-width="120.00" stroke-opacity="1.00" stroke-linejoin="round"/>
<path d="M899.19,191.59" fill="none" stroke="rgb(255, 255, 255)" stroke-width="120.00" stroke-opacity="1.00" stroke-linejoin="round"/>
<path d="M907.04,201.49" fill="none" stroke="rgb(255, 255, 255)" stroke-width="120.00" stroke-opacity="1.00" stroke-linejoin="round"/>
<path d="M912.16,210.03" fill="none" stroke="rgb(255, 255, 255)" stroke-width="120.00" stroke-opacity="1.00" stroke-linejoin="round"/>
<path d="M915.92,214.47" fill="none" stroke="rgb(255, 255, 255)" stroke-width="120.00" stroke-opacity="1.00" stroke-linejoin="round"/>
<path d="M918.31,224.71" fill="none" stroke="rgb(255, 255, 255)" stroke-width="120.00" stroke-opacity="1.00" stroke-linejoin="round"/>
<path d="M921.73,229.15" fill="none" stroke="rgb(255, 255, 255)" stroke-width="120.00" stroke-opacity="1.00" stroke-linejoin="round"/>
<path d="M923.78,242.81" fill="none" stroke="rgb(255, 255, 255)" stroke-width="120.00" stroke-opacity="1.00" stroke-linejoin="round"/>
<path d="M923.78,259.20" fill="none" stroke="rgb(255, 255, 255)" stroke-width="120.00" stroke-opacity="1.00" stroke-linejoin="round"/>
<path d="M917.63,274.91" fill="none" stroke="rgb(255, 255, 255)" stroke-width="120.00" stroke-opacity="1.00" stroke-linejoin="round"/>
<path d="M907.38,291.99" fill="none" stroke="rgb(255, 255, 255)" stroke-width="120.00" stroke-opacity="1.00" stroke-linejoin="round"/>
<path d="M912.16,285.84" fill="none" stroke="rgb(255, 255, 255)" stroke-width="120.00" stroke-opacity="1.00" stroke-linejoin="round"/>
<path d="M896.80,305.99" fill="none" stroke="rgb(255, 255, 255)" stroke-width="120.00" stroke-opacity="1.00" stroke-linejoin="round"/>
<path d="M884.84,319.99" fill="none" stroke="rgb(255, 255, 255)" stroke-width="120.00" stroke-opacity="1.00" stroke-linejoin="round"/>
<path d="M854.45,338.43" fill="none" stroke="rgb(255, 255, 255)" stroke-width="120.00" stroke-opacity="1.00" stroke-linejoin="round"/>
<path d="M866.40,330.92" fill="none" stroke="rgb(255, 255, 255)" stroke-width="120.00" stroke-opacity="1.00" stroke-linejoin="round"/>
<path d="M835.33,350.73" fill="none" stroke="rgb(255, 255, 255)" stroke-width="120.00" stroke-opacity="1.00" stroke-linejoin="round"/>
<path d="M810.05,364.39" fill="none" stroke="rgb(255, 255, 255)" stroke-width="120.00" stroke-opacity="1.00" stroke-linejoin="round"/>
<path d="M784.44,377.02" fill="none" stroke="rgb(255, 255, 255)" stroke-width="120.00" stroke-opacity="1.00" stroke-linejoin="round"/>
<path d="M741.75,391.37" fill="none" stroke="rgb(255, 255, 255)" stroke-width="120.00" stroke-opacity="1.00" stroke-linejoin="round"/>
<path d="M763.95,384.19" fill="none" stroke="rgb(255, 255, 255)" stroke-width="120.00" stroke-opacity="1.00" stroke-linejoin="round"/>
<path d="M718.87,397.86" fill="none" stroke="rgb(255, 255, 255)" stroke-width="120.00" stroke-opacity="1.00" stroke-linejoin="round"/>
<path d="M699.41,402.29" fill="none" stroke="rgb(255, 255, 255)" stroke-width="120.00" stroke-opacity="1.00" stroke-linejoin="round"/>
<path d="M670.72,408.78" fill="none" stroke="rgb(255, 255, 255)" stroke-width="120.00" stroke-opacity="1.00" stroke-linejoin="round"/>
<path d="M688.82,404.69" fill="none" stroke="rgb(255, 255, 255)" stroke-width="120.00" stroke-opacity="1.00" stroke-linejoin="round"/>
<path d="M641.35,412.88" fill="none" stroke="rgb(255, 255, 255)" stroke-width="120.00" stroke-opacity="1.00" stroke-linejoin="round"/>
<path d="M655.69,410.83" fill="none" stroke="rgb(255, 255, 255)" stroke-width="120.00" stroke-opacity="1.00" stroke-linejoin="round"/>
<path d="M628.03,414.59" fill="none" stroke="rgb(255, 255, 255)" stroke-width="120.00" stroke-opacity="1.00" stroke-linejoin="round"/>
<path d="M613.69,418.35" fill="none" stroke="rgb(255, 255, 255)" stroke-width="120.00" stroke-opacity="1.00" stroke-linejoin="round"/>
<path d="M587.73,421.08" fill="none" stroke="rgb(255, 255, 255)" stroke-width="120.00" stroke-opacity="1.00" stroke-linejoin="round"/>
<path d="M565.88,423.13" fill="none" stroke="rgb(255, 255, 255)" stroke-width="120.00" stroke-opacity="1.00" stroke-linejoin="round"/>
<path d="M528.99,424.49" fill="none" stroke="rgb(255, 255, 255)" stroke-width="120.00" stroke-opacity="1.00" stroke-linejoin="round"/>
<path d="M540.95,424.49" fill="none" stroke="rgb(255, 255, 255)" stroke-width="120.00" stroke-opacity="1.00" stroke-linejoin="round"/>
<path d="M506.11,425.52" fill="none" stroke="rgb(255, 255, 255)" stroke-width="120.00" stroke-opacity="1.00" stroke-linejoin="round"/>
<path d="M475.04,424.83" fill="none" stroke="rgb(255, 255, 255)" stroke-width="120.00" stroke-opacity="1.00" stroke-linejoin="round"/>
<path d="M444.64,423.47" fill="none" stroke="rgb(255, 255, 255)" stroke-width="120.00" stroke-opacity="1.00" stroke-linejoin="round"/>
<path d="M461.03,423.81" fill="none" stroke="rgb(255, 255, 255)" stroke-width="120.00" stroke-opacity="1.00" stroke-linejoin="round"/>
<path d="M486.65,426.20" fill="none" stroke="rgb(255, 255, 255)" stroke-width="120.00" stroke-opacity="1.00" stroke-linejoin="round"/>
<path d="M516.36,426.88" fill="none" stroke="rgb(255, 255, 255)" stroke-width="120.00" stroke-opacity="1.00" stroke-linejoin="round"/>
<path d="M545.04,426.20" fill="none" stroke="rgb(255, 255, 255)" stroke-width="120.00" stroke-opacity="1.00" stroke-linejoin="round"/>
<path d="M564.85,424.83" fill="none" stroke="rgb(255, 255, 255)" stroke-width="120.00" stroke-opacity="1.00" stroke-linejoin="round"/>
<path d="M591.83,419.71" fill="none" stroke="rgb(255, 255, 255)" stroke-width="120.00" stroke-opacity="1.00" stroke-linejoin="round"/>
<path d="M607.88,419.71" fill="none" stroke="rgb(255, 255, 255)" stroke-width="120.00" stroke-opacity="1.00" stroke-linejoin="round"/>
<path d="M630.76,414.93" fill="none" stroke="rgb(255, 255, 255)" stroke-width="120.00" stroke-opacity="1.00" stroke-linejoin="round"/>
<path d="M641.69,411.86" fill="none" stroke="rgb(255, 255, 255)" stroke-width="120.00" stroke-opacity="1.00" stroke-linejoin="round"/>
<path d="M430.98,422.79" fill="none" stroke="rgb(255, 255, 255)" stroke-width="120.00" stroke-opacity="1.00" stroke-linejoin="round"/>
<path d="M411.86,421.08" fill="none" stroke="rgb(255, 255, 255)" stroke-width="120.00" stroke-opacity="1.00" stroke-linejoin="round"/>
<path d="M388.29,416.98" fill="none" stroke="rgb(255, 255, 255)" stroke-width="120.00" stroke-opacity="1.00" stroke-linejoin="round"/>
<path d="M398.20,418.35" fill="none" stroke="rgb(255, 255, 255)" stroke-width="120.00" stroke-opacity="1.00" stroke-linejoin="round"/>
<path d="M393.42,420.39" fill="none" stroke="rgb(255, 255, 255)" stroke-width="120.00" stroke-opacity="1.00" stroke-linejoin="round"/>
<path d="M368.83,417.32" fill="none" stroke="rgb(255, 255, 255)" stroke-width="120.00" stroke-opacity="1.00" stroke-linejoin="round"/>
<path d="M351.41,412.88" fill="none" stroke="rgb(255, 255, 255)" stroke-width="120.00" stroke-opacity="1.00" stroke-linejoin="round"/>
<path d="M825.42,354.83" fill="none" stroke="rgb(255, 255, 255)" stroke-width="120.00" stroke-opacity="1.00" stroke-linejoin="round"/>
<path d="M820.30,358.92" fill="none" stroke="rgb(255, 255, 255)" stroke-width="120.00" stroke-opacity="1.00" stroke-linejoin="round"/>
<path d="M848.99,344.92" fill="none" stroke="rgb(255, 255, 255)" stroke-width="120.00" stroke-opacity="1.00" stroke-linejoin="round"/>
<path d="M869.48,330.24" fill="none" stroke="rgb(255, 255, 255)" stroke-width="120.00" stroke-opacity="1.00" stroke-linejoin="round"/>
<path d="M225.39,448.28" fill="none" stroke="rgb(255, 255, 255)" stroke-width="120.00" stroke-opacity="1.00" stroke-linejoin="round"/>
<path d="M297.02,418.23" fill="none" stroke="rgb(255, 255, 255)" stroke-width="120.00" stroke-opacity="1.00" stroke-linejoin="round"/>
<path d="M271.98,428.75" fill="none" stroke="rgb(255, 255, 255)" stroke-width="120.00" stroke-opacity="1.00" stroke-linejoin="round"/>
<path d="M296.39,418.86" fill="none" stroke="rgb(255, 255, 255)" stroke-width="120.00" stroke-opacity="1.00" stroke-linejoin="round"/>
<path d="M296.39,418.86 L230.65,451.92" fill="none" stroke="rgb(255, 255, 255)" stroke-width="120.00" stroke-opacity="1.00" stroke-linejoin="round"/>
<path d="M230.65,451.92" fill="none" stroke="rgb(255, 255, 255)" stroke-width="120.00" stroke-opacity="1.00" stroke-linejoin="round"/>
<path d="M149.14,344.48" fill="none" stroke="rgb(255, 255, 255)" stroke-width="120.00" stroke-opacity="1.00" stroke-linejoin="round"/>
<path d="M149.14,344.48 L231.78,388.81" fill="none" stroke="rgb(255, 255, 255)" stroke-width="120.00" stroke-opacity="1.00" stroke-linejoin="round"/>
<path d="M231.78,388.81" fill="none" stroke="rgb(255, 255, 255)" stroke-width="120.00" stroke-opacity="1.00" stroke-linejoin="round"/>
<path d="M105.18,315.55" fill="none" stroke="rgb(255, 255, 255)" stroke-width="120.00" stroke-opacity="1.00" stroke-linejoin="round"/>
<path d="M118.33,326.07" fill="none" stroke="rgb(255, 255, 255)" stroke-width="120.00" stroke-opacity="1.00" stroke-linejoin="round"/>
<path d="M134.49,338.09" fill="none" stroke="rgb(255, 255, 255)" stroke-width="120.00" stroke-opacity="1.00" stroke-linejoin="round"/>
<path d="M84.90,293.76" fill="none" stroke="rgb(255, 255, 255)" stroke-width="120.00" stroke-opacity="1.00" stroke-linejoin="round"/>
<path d="M184.44,437.22" fill="none" stroke="rgb(255, 255, 255)" stroke-width="40.00" stroke-opacity="1.00" stroke-linejoin="round"/>
<path d="M184.44,437.22 L136.67,546.11" fill="none" stroke="rgb(255, 255, 255)" stroke-width="40.00" stroke-opacity="1.00" stroke-linejoin="round"/>
<path d="M136.67,546.11" fill="none" stroke="rgb(255, 255, 255)" stroke-width="40.00" stroke-opacity="1.00" stroke-linejoin="round"/>
<path d="M136.67,546.11 L262.78,480.00" fill="none" stroke="rgb(255, 255, 255)" stroke-width="40.00" stroke-opacity="1.00" stroke-linejoin="round"/>
<path d="M262.78,480.00" fill="none" stroke="rgb(255, 255, 255)" stroke-width="40.00" stroke-opacity="1.00" stroke-linejoin="round"/>
<path d="M262.78,480.00 L183.89,500.00" fill="none" stroke="rgb(255, 255, 255)" stroke-width="40.00" stroke-opacity="1.00" stroke-linejoin="round"/>
<path d="M183.89,500.00" fill="none" stroke="rgb(255, 255, 255)" stroke-width="40.00" stroke-opacity="1.00" stroke-linejoin="round"/>
<path d="M147.22,500.56" fill="none" stroke="rgb(255, 255, 255)" stroke-width="30.00" stroke-opacity="1.00" stroke-linejoin="round"/>
<path d="M147.22,500.56 L125.00,554.44" fill="none" stroke="rgb(255, 255, 255)" stroke-width="30.00" stroke-opacity="1.00" stroke-linejoin="round"/>
<path d="M125.00,554.44" fill="none" stroke="rgb(255, 255, 255)" stroke-width="30.00" stroke-opacity="1.00" stroke-linejoin="round"/>
<path d="M121.11,542.78" fill="none" stroke="rgb(255, 255, 255)" stroke-width="17.00" stroke-opacity="1.00" stroke-linejoin="round"/>
<path d="M121.11,542.78 L108.33,575.00" fill="none" stroke="rgb(255, 255, 255)" stroke-width="17.00" stroke-opacity="1.00" stroke-linejoin="round"/>
<path d="M108.33,575.00" fill="none" stroke="rgb(255, 255, 255)" stroke-width="17.00" stroke-opacity="1.00" stroke-linejoin="round"/>
<path d="M108.33,575.00 L147.78,552.22" fill="none" stroke="rgb(255, 255, 255)" stroke-width="17.00" stroke-opacity="1.00" stroke-linejoin="round"/>
<path d="M147.78,552.22" fill="none" stroke="rgb(255, 255, 255)" stroke-width="17.00" stroke-opacity="1.00" stroke-linejoin="round"/>
<path d="M100.00,579.44" fill="none" stroke="rgb(255, 255, 255)" stroke-width="10.00" stroke-opacity="1.00" stroke-linejoin="round"/>
<path d="M103.86,575.68 C104.10,580.36 100.55,582.80 100.68,585.23" fill="none" stroke="rgb(255, 255, 255)" stroke-width="10.00" stroke-opacity="1.00" stroke-linejoin="round"/>
<path d="M101.82,582.95 C104.84,581.19 108.85,578.98 109.43,578.41 C110.97,576.89 112.79,576.82 112.95,576.59" fill="none" stroke="rgb(255, 255, 255)" stroke-width="10.00" stroke-opacity="1.00" stroke-linejoin="round"/>
<path d="M95.23,587.95" fill="none" stroke="rgb(255, 255, 255)" stroke-width="10.00" stroke-opacity="1.00" stroke-linejoin="round"/>
<path d="M95.23,587.95" fill="none" stroke="rgb(255, 255, 255)" stroke-width="10.00" stroke-opacity="1.00" stroke-linejoin="round"/>
<path d="M95.23,587.95" fill="none" stroke="rgb(255, 255, 255)" stroke-width="10.00" stroke-opacity="1.00" stroke-linejoin="round"/>
<path d="M99.55,584.09" fill="none" stroke="rgb(255, 255, 255)" stroke-width="10.00" stroke-opacity="1.00" stroke-linejoin="round"/>
<path d="M99.55,584.09" fill="none" stroke="rgb(255, 255, 255)" stroke-width="10.00" stroke-opacity="1.00" stroke-linejoin="round"/>
<path d="M99.55,584.09" fill="none" stroke="rgb(255, 255, 255)" stroke-width="10.00" stroke-opacity="1.00" stroke-linejoin="round"/>
<path d="M168.02,547.78" fill="none" stroke="rgb(255, 255, 255)" stroke-width="10.00" stroke-opacity="1.00" stroke-linejoin="round"/>
<path d="M168.02,547.78 L303.94,476.06" fill="none" stroke="rgb(255, 255, 255)" stroke-width="10.00" stroke-opacity="1.00" stroke-linejoin="round"/>
<path d="M303.94,476.06" fill="none" stroke="rgb(255, 255, 255)" stroke-width="10.00" stroke-opacity="1.00" stroke-linejoin="round"/>
<path d="M450.29,10.02 C450.29,10.02 475.83,10.02 475.83,10.02" fill="none" stroke="rgb(255, 255, 255)" stroke-width="10.00" stroke-opacity="1.00" stroke-linejoin="round"/>
<path d="M366.14,16.03" fill="none" stroke="rgb(255, 255, 255)" stroke-width="10.00" stroke-opacity="1.00" stroke-linejoin="round"/>
<path d="M366.14,16.03 L277.49,34.06" fill="none" stroke="rgb(255, 255, 255)" stroke-width="10.00" stroke-opacity="1.00" stroke-linejoin="round"/>
<path d="M277.49,34.06" fill="none" stroke="rgb(255, 255, 255)" stroke-width="10.00" stroke-opacity="1.00" stroke-linejoin="round"/>
<path d="M277.49,34.06 L206.86,54.60" fill="none" stroke="rgb(255, 255, 255)" stroke-width="10.00" stroke-opacity="1.00" stroke-linejoin="round"/>
<path d="M206.86,54.60" fill="none" stroke="rgb(255, 255, 255)" stroke-width="10.00" stroke-opacity="1.00" stroke-linejoin="round"/>
<path d="M206.86,54.60 L159.78,71.63" fill="none" stroke="rgb(255, 255, 255)" stroke-width="10.00" stroke-opacity="1.00" stroke-linejoin="round"/>
<path d="M159.78,71.63" fill="none" stroke="rgb(255, 255, 255)" stroke-width="10.00" stroke-opacity="1.00" stroke-linejoin="round"/>
<path d="M159.78,71.63 L120.21,93.16" fill="none" stroke="rgb(255, 255, 255)" stroke-width="10.00" stroke-opacity="1.00" stroke-linejoin="round"/>
<path d="M120.21,93.16" fill="none" stroke="rgb(255, 255, 255)" stroke-width="10.00" stroke-opacity="1.00" stroke-linejoin="round"/>
<path d="M120.21,93.16 L79.64,118.71" fill="none" stroke="rgb(255, 255, 255)" stroke-width="10.00" stroke-opacity="1.00" stroke-linejoin="round"/>
<path d="M79.64,118.71" fill="none" stroke="rgb(255, 255, 255)" stroke-width="10.00" stroke-opacity="1.00" stroke-linejoin="round"/>
<path d="M79.64,118.71 L44.58,151.77" fill="none" stroke="rgb(255, 255, 255)" stroke-width="10.00" stroke-opacity="1.00" stroke-linejoin="round"/>
<path d="M44.58,151.77" fill="none" stroke="rgb(255, 255, 255)" stroke-width="10.00" stroke-opacity="1.00" stroke-linejoin="round"/>
<path d="M44.58,151.77 L21.54,187.83" fill="none" stroke="rgb(255, 255, 255)" stroke-width="10.00" stroke-opacity="1.00" stroke-linejoin="round"/>
<path d="M21.54,187.83" fill="none" stroke="rgb(255, 255, 255)" stroke-width="10.00" stroke-opacity="1.00" stroke-linejoin="round"/>
<path d="M170.04,423.09 C158.94,417.80 131.78,404.73 116.49,396.00 C111.87,393.29 95.93,382.74 89.37,378.06 C82.89,373.21 70.45,363.25 64.63,358.24 C56.65,351.02 48.04,342.42 42.35,335.75 C37.07,329.51 27.93,316.74 24.01,310.27 C19.46,302.73 13.87,290.88 11.03,282.36 C8.52,274.74 5.22,259.27 4.49,251.63 C3.79,244.00 4.85,228.75 6.29,221.04 C7.76,213.29 12.75,197.03 15.62,190.66 C17.99,185.42 26.31,171.31 30.81,164.89 C35.34,158.47 46.31,145.10 51.21,140.02 C53.62,137.55 67.35,125.15 73.21,120.26 C79.32,115.41 92.08,105.95 98.72,101.36 C110.79,93.39 138.40,78.24 152.74,71.33 C167.33,64.67 190.35,55.09 210.63,47.98 C225.26,43.20 255.48,34.33 270.85,30.31 C281.30,27.73 315.85,20.73 331.26,18.02 C346.80,15.54 381.32,10.88 393.31,9.72 C408.68,8.40 439.96,6.50 455.69,5.72 C471.34,5.27 495.62,5.00 518.09,5.56 C533.83,6.29 565.24,8.08 580.73,9.35 C599.45,11.16 627.26,14.87 642.87,17.29 C658.45,19.95 688.83,25.88 703.60,29.15 C719.15,33.10 749.76,41.81 764.72,46.54 C779.26,51.47 801.50,59.63 823.19,69.14 C840.69,77.39 869.59,92.63 878.36,98.24 C885.28,102.76 898.61,112.08 905.03,116.87 C911.26,121.75 922.99,131.60 928.49,136.58 C934.01,141.77 944.97,153.81 949.94,160.15 C954.91,166.50 963.56,179.42 967.17,185.88 C971.14,193.20 976.70,207.35 978.80,215.04 C980.89,222.77 983.44,239.33 983.53,245.74 C983.60,252.15 981.46,268.71 979.56,276.43 C977.65,284.11 972.44,298.25 968.65,305.55 C965.19,312.00 956.87,324.89 952.05,331.23 C947.24,337.54 936.57,349.55 931.18,354.72 C925.80,359.68 914.31,369.49 908.21,374.34 C901.91,379.12 888.80,388.39 881.99,392.89 C873.37,398.46 842.07,415.04 827.54,421.79 C806.09,431.22 784.05,439.30 769.63,444.18 C754.79,448.86 724.39,457.46 708.93,461.35 C694.25,464.57 664.01,470.40 648.50,473.00 C632.94,475.36 601.87,479.30 586.75,480.76 C571.41,481.91 540.50,483.89 524.75,484.43 C508.81,484.70 476.62,484.33 460.24,483.73 C443.67,482.77 412.31,480.64 397.53,479.47 C367.24,476.38 331.59,470.02 329.60,469.67" fill="none" stroke="rgb(0, 0, 0)" stroke-width="5.30" stroke-opacity="1.00" stroke-linejoin="round"/>
<path d="M170.00,422.00 L90.00,594.00" fill="none" stroke="rgb(0, 0, 0)" stroke-width="5.00" stroke-opacity="1.00" stroke-linejoin="round"/>
<path d="M90.00,594.00 L327.80,470.56" fill="none" stroke="rgb(0, 0, 0)" stroke-width="5.00" stroke-opacity="1.00" stroke-linejoin="round"/>
</g>
</svg>
