<?xml version="1.0" encoding="UTF-8" standalone="no"?>
<!DOCTYPE svg PUBLIC "-//W3C//DTD SVG 1.1//EN" "http://www.w3.org/Graphics/SVG/1.1/DTD/svg11.dtd">
<svg width="1031.76" height="728.64" viewBox="0.00 0.00 1032.00 729.00" xmlns="http://www.w3.org/2000/svg" xmlns:xlink="http://www.w3.org/1999/xlink">
<g stroke-linecap="round" id="Vector_layer">
<path d="M190.04,468.09 C178.94,462.80 151.78,449.73 136.49,441.00 C131.87,438.29 115.93,427.74 109.37,423.06 C102.89,418.21 90.45,408.25 84.63,403.24 C76.65,396.02 68.04,387.42 62.35,380.75 C57.07,374.51 47.93,361.74 44.01,355.27 C39.46,347.73 33.87,335.88 31.03,327.36 C28.52,319.74 25.22,304.27 24.49,296.63 C23.79,289.00 24.85,273.75 26.29,266.04 C27.76,258.29 32.75,242.03 35.62,235.66 C37.99,230.42 46.31,216.31 50.81,209.89 C55.34,203.47 66.31,190.10 71.21,185.02 C73.62,182.55 87.35,170.15 93.21,165.26 C99.32,160.41 112.08,150.95 118.72,146.36 C130.79,138.39 158.40,123.24 172.74,116.33 C187.33,109.67 210.35,100.09 230.63,92.98 C245.26,88.20 275.48,79.33 290.85,75.31 C301.30,72.73 335.85,65.73 351.26,63.02 C366.80,60.54 401.32,55.88 413.31,54.72 C428.68,53.40 459.96,51.50 475.69,50.72 C491.34,50.27 515.62,50.00 538.09,50.56 C553.83,51.29 585.24,53.08 600.73,54.35 C619.45,56.16 647.26,59.87 662.87,62.29 C678.45,64.95 708.83,70.88 723.60,74.15 C739.15,78.10 769.76,86.81 784.72,91.54 C799.26,96.47 821.50,104.63 843.19,114.14 C860.69,122.39 889.59,137.63 898.36,143.24 C905.28,147.76 918.61,157.08 925.03,161.87 C931.26,166.75 942.99,176.60 948.49,181.58 C954.01,186.77 964.97,198.81 969.94,205.15 C974.91,211.50 983.56,224.42 987.17,230.88 C991.14,238.20 996.70,252.35 998.80,260.04 C1000.89,267.77 1003.44,284.33 1003.53,290.74 C1003.60,297.15 1001.46,313.71 999.56,321.43 C997.65,329.11 992.44,343.25 988.65,350.55 C985.19,357.00 976.87,369.89 972.05,376.23 C967.24,382.54 956.57,394.55 951.18,399.72 C945.80,404.68 934.31,414.49 928.21,419.34 C921.91,424.12 908.80,433.39 901.99,437.89 C893.37,443.46 862.07,460.04 847.54,466.79 C826.09,476.22 804.05,484.30 789.63,489.18 C774.79,493.86 744.39,502.46 728.93,506.35 C714.25,509.57 684.01,515.40 668.50,518.00 C652.94,520.36 621.87,524.30 606.75,525.76 C591.41,526.91 560.50,528.89 544.75,529.43 C528.81,529.70 496.62,529.33 480.24,528.73 C463.67,527.77 432.31,525.64 417.53,524.47 C387.24,521.38 351.59,515.02 349.60,514.67" fill="none" stroke="rgb(0, 0, 0)" stroke-width="5.30" stroke-opacity="1.00" stroke-linejoin="round"/>
<path d="M190.00,467.00 L110.00,639.00" fill="none" stroke="rgb(0, 0, 0)" stroke-width="5.00" stroke-opacity="1.00" stroke-linejoin="round"/>
<path d="M110.00,639.00 L347.80,515.56" fill="none" stroke="rgb(0, 0, 0)" stroke-width="5.00" stroke-opacity="1.00" stroke-linejoin="round"/>
</g>
</svg>
