<?xml version="1.0" encoding="UTF-8" standalone="no"?>
<!DOCTYPE svg PUBLIC "-//W3C//DTD SVG 1.1//EN" "http://www.w3.org/Graphics/SVG/1.1/DTD/svg11.dtd">
<svg width="677.00" height="287.00" viewBox="0.00 0.00 677.00 287.00" xmlns="http://www.w3.org/2000/svg" xmlns:xlink="http://www.w3.org/1999/xlink">
<g stroke-linecap="round" id="Layer_2_Copy_4">
<path d="M482.67,126.00 C482.67,126.00 494.67,137.33 494.67,137.33" fill="none" stroke="rgb(255, 255, 255)" stroke-width="150.00" stroke-opacity="1.00" stroke-linejoin="round"/>
<path d="M208.77,119.99 C208.77,119.99 208.67,120.00 208.67,120.00" fill="none" stroke="rgb(255, 255, 255)" stroke-width="150.00" stroke-opacity="1.00" stroke-linejoin="round"/>
<path d="M220.93,136.61 C220.93,136.61 262.67,137.33 262.67,137.33" fill="none" stroke="rgb(255, 255, 255)" stroke-width="150.00" stroke-opacity="1.00" stroke-linejoin="round"/>
<path d="M154.67,98.67" fill="none" stroke="rgb(255, 255, 255)" stroke-width="150.00" stroke-opacity="1.00" stroke-linejoin="round"/>
<path d="M196.00,88.67" fill="none" stroke="rgb(255, 255, 255)" stroke-width="150.00" stroke-opacity="1.00" stroke-linejoin="round"/>
<path d="M180.67,94.00" fill="none" stroke="rgb(255, 255, 255)" stroke-width="150.00" stroke-opacity="1.00" stroke-linejoin="round"/>
<path d="M224.67,84.67" fill="none" stroke="rgb(255, 255, 255)" stroke-width="150.00" stroke-opacity="1.00" stroke-linejoin="round"/>
<path d="M245.33,84.67" fill="none" stroke="rgb(255, 255, 255)" stroke-width="150.00" stroke-opacity="1.00" stroke-linejoin="round"/>
<path d="M270.00,83.33" fill="none" stroke="rgb(255, 255, 255)" stroke-width="150.00" stroke-opacity="1.00" stroke-linejoin="round"/>
<path d="M181.00,136.26" fill="none" stroke="rgb(255, 255, 255)" stroke-width="150.00" stroke-opacity="1.00" stroke-linejoin="round"/>
<path d="M172.46,135.92" fill="none" stroke="rgb(255, 255, 255)" stroke-width="150.00" stroke-opacity="1.00" stroke-linejoin="round"/>
<path d="M172.80,135.92" fill="none" stroke="rgb(255, 255, 255)" stroke-width="150.00" stroke-opacity="1.00" stroke-linejoin="round"/>
<path d="M198.76,140.70" fill="none" stroke="rgb(255, 255, 255)" stroke-width="150.00" stroke-opacity="1.00" stroke-linejoin="round"/>
<path d="M226.76,142.75" fill="none" stroke="rgb(255, 255, 255)" stroke-width="150.00" stroke-opacity="1.00" stroke-linejoin="round"/>
<path d="M238.71,146.16" fill="none" stroke="rgb(255, 255, 255)" stroke-width="150.00" stroke-opacity="1.00" stroke-linejoin="round"/>
<path d="M257.50,147.19" fill="none" stroke="rgb(255, 255, 255)" stroke-width="150.00" stroke-opacity="1.00" stroke-linejoin="round"/>
<path d="M268.42,146.85" fill="none" stroke="rgb(255, 255, 255)" stroke-width="150.00" stroke-opacity="1.00" stroke-linejoin="round"/>
<path d="M277.64,147.53" fill="none" stroke="rgb(255, 255, 255)" stroke-width="150.00" stroke-opacity="1.00" stroke-linejoin="round"/>
<path d="M295.06,149.92" fill="none" stroke="rgb(255, 255, 255)" stroke-width="150.00" stroke-opacity="1.00" stroke-linejoin="round"/>
<path d="M314.19,150.26" fill="none" stroke="rgb(255, 255, 255)" stroke-width="150.00" stroke-opacity="1.00" stroke-linejoin="round"/>
<path d="M328.53,150.26" fill="none" stroke="rgb(255, 255, 255)" stroke-width="150.00" stroke-opacity="1.00" stroke-linejoin="round"/>
<path d="M339.46,150.26" fill="none" stroke="rgb(255, 255, 255)" stroke-width="150.00" stroke-opacity="1.00" stroke-linejoin="round"/>
<path d="M353.80,150.60" fill="none" stroke="rgb(255, 255, 255)" stroke-width="150.00" stroke-opacity="1.00" stroke-linejoin="round"/>
<path d="M366.44,150.60" fill="none" stroke="rgb(255, 255, 255)" stroke-width="150.00" stroke-opacity="1.00" stroke-linejoin="round"/>
<path d="M378.73,150.60" fill="none" stroke="rgb(255, 255, 255)" stroke-width="150.00" stroke-opacity="1.00" stroke-linejoin="round"/>
<path d="M394.44,150.60" fill="none" stroke="rgb(255, 255, 255)" stroke-width="150.00" stroke-opacity="1.00" stroke-linejoin="round"/>
<path d="M426.54,146.51" fill="none" stroke="rgb(255, 255, 255)" stroke-width="150.00" stroke-opacity="1.00" stroke-linejoin="round"/>
<path d="M441.91,146.16" fill="none" stroke="rgb(255, 255, 255)" stroke-width="150.00" stroke-opacity="1.00" stroke-linejoin="round"/>
<path d="M458.64,142.75" fill="none" stroke="rgb(255, 255, 255)" stroke-width="150.00" stroke-opacity="1.00" stroke-linejoin="round"/>
<path d="M458.64,142.75" fill="none" stroke="rgb(255, 255, 255)" stroke-width="150.00" stroke-opacity="1.00" stroke-linejoin="round"/>
<path d="M74.25,115.00" fill="none" stroke="rgb(255, 255, 255)" stroke-width="120.00" stroke-opacity="1.00" stroke-linejoin="round"/>
<path d="M74.25,115.00" fill="none" stroke="rgb(255, 255, 255)" stroke-width="120.00" stroke-opacity="1.00" stroke-linejoin="round"/>
<path d="M87.50,107.00" fill="none" stroke="rgb(255, 255, 255)" stroke-width="120.00" stroke-opacity="1.00" stroke-linejoin="round"/>
<path d="M87.50,107.00" fill="none" stroke="rgb(255, 255, 255)" stroke-width="120.00" stroke-opacity="1.00" stroke-linejoin="round"/>
<path d="M95.75,102.25" fill="none" stroke="rgb(255, 255, 255)" stroke-width="120.00" stroke-opacity="1.00" stroke-linejoin="round"/>
<path d="M87.00,123.00" fill="none" stroke="rgb(255, 255, 255)" stroke-width="120.00" stroke-opacity="1.00" stroke-linejoin="round"/>
<path d="M87.00,123.00" fill="none" stroke="rgb(255, 255, 255)" stroke-width="120.00" stroke-opacity="1.00" stroke-linejoin="round"/>
<path d="M99.75,129.00" fill="none" stroke="rgb(255, 255, 255)" stroke-width="120.00" stroke-opacity="1.00" stroke-linejoin="round"/>
<path d="M46.12,103.12 C46.12,103.12 45.00,105.00 45.00,105.00" fill="none" stroke="rgb(255, 255, 255)" stroke-width="70.00" stroke-opacity="1.00" stroke-linejoin="round"/>
<path d="M45.00,105.00" fill="none" stroke="rgb(255, 255, 255)" stroke-width="70.00" stroke-opacity="1.00" stroke-linejoin="round"/>
<path d="M39.75,107.75" fill="none" stroke="rgb(255, 255, 255)" stroke-width="70.00" stroke-opacity="1.00" stroke-linejoin="round"/>
<path d="M38.75,115.00" fill="none" stroke="rgb(255, 255, 255)" stroke-width="70.00" stroke-opacity="1.00" stroke-linejoin="round"/>
<path d="M43.00,120.25" fill="none" stroke="rgb(255, 255, 255)" stroke-width="70.00" stroke-opacity="1.00" stroke-linejoin="round"/>
<path d="M44.12,123.38 C44.12,123.38 41.00,120.25 41.00,120.25" fill="none" stroke="rgb(255, 255, 255)" stroke-width="70.00" stroke-opacity="1.00" stroke-linejoin="round"/>
<path d="M507.02,177.69" fill="none" stroke="rgb(255, 255, 255)" stroke-width="70.00" stroke-opacity="1.00" stroke-linejoin="round"/>
<path d="M104.13,156.20" fill="none" stroke="rgb(255, 255, 255)" stroke-width="70.00" stroke-opacity="1.00" stroke-linejoin="round"/>
<path d="M113.64,162.40" fill="none" stroke="rgb(255, 255, 255)" stroke-width="70.00" stroke-opacity="1.00" stroke-linejoin="round"/>
<path d="M128.51,164.88" fill="none" stroke="rgb(255, 255, 255)" stroke-width="70.00" stroke-opacity="1.00" stroke-linejoin="round"/>
<path d="M137.19,167.36" fill="none" stroke="rgb(255, 255, 255)" stroke-width="70.00" stroke-opacity="1.00" stroke-linejoin="round"/>
<path d="M137.19,167.77" fill="none" stroke="rgb(255, 255, 255)" stroke-width="70.00" stroke-opacity="1.00" stroke-linejoin="round"/>
<path d="M107.02,71.49" fill="none" stroke="rgb(255, 255, 255)" stroke-width="70.00" stroke-opacity="1.00" stroke-linejoin="round"/>
<path d="M122.31,66.94" fill="none" stroke="rgb(255, 255, 255)" stroke-width="70.00" stroke-opacity="1.00" stroke-linejoin="round"/>
<path d="M242.05,43.41" fill="none" stroke="rgb(255, 255, 255)" stroke-width="70.00" stroke-opacity="1.00" stroke-linejoin="round"/>
<path d="M242.05,43.41 L347.73,39.32" fill="none" stroke="rgb(255, 255, 255)" stroke-width="70.00" stroke-opacity="1.00" stroke-linejoin="round"/>
<path d="M347.73,39.32" fill="none" stroke="rgb(255, 255, 255)" stroke-width="70.00" stroke-opacity="1.00" stroke-linejoin="round"/>
<path d="M356.48,39.37" fill="none" stroke="rgb(255, 255, 255)" stroke-width="70.00" stroke-opacity="1.00" stroke-linejoin="round"/>
<path d="M356.48,39.37 L458.94,46.57" fill="none" stroke="rgb(255, 255, 255)" stroke-width="70.00" stroke-opacity="1.00" stroke-linejoin="round"/>
<path d="M458.94,46.57" fill="none" stroke="rgb(255, 255, 255)" stroke-width="70.00" stroke-opacity="1.00" stroke-linejoin="round"/>
<path d="M458.94,46.57 L548.27,64.78" fill="none" stroke="rgb(255, 255, 255)" stroke-width="70.00" stroke-opacity="1.00" stroke-linejoin="round"/>
<path d="M548.27,64.78" fill="none" stroke="rgb(255, 255, 255)" stroke-width="70.00" stroke-opacity="1.00" stroke-linejoin="round"/>
<path d="M548.27,64.78 L607.97,86.79" fill="none" stroke="rgb(255, 255, 255)" stroke-width="70.00" stroke-opacity="1.00" stroke-linejoin="round"/>
<path d="M607.97,86.79" fill="none" stroke="rgb(255, 255, 255)" stroke-width="70.00" stroke-opacity="1.00" stroke-linejoin="round"/>
<path d="M607.97,86.79 L633.37,105.00" fill="none" stroke="rgb(255, 255, 255)" stroke-width="70.00" stroke-opacity="1.00" stroke-linejoin="round"/>
<path d="M633.37,105.00" fill="none" stroke="rgb(255, 255, 255)" stroke-width="70.00" stroke-opacity="1.00" stroke-linejoin="round"/>
<path d="M633.37,105.00 L638.03,113.89" fill="none" stroke="rgb(255, 255, 255)" stroke-width="70.00" stroke-opacity="1.00" stroke-linejoin="round"/>
<path d="M638.03,113.89" fill="none" stroke="rgb(255, 255, 255)" stroke-width="70.00" stroke-opacity="1.00" stroke-linejoin="round"/>
<path d="M638.03,113.89 L635.07,121.51" fill="none" stroke="rgb(255, 255, 255)" stroke-width="70.00" stroke-opacity="1.00" stroke-linejoin="round"/>
<path d="M635.07,121.51" fill="none" stroke="rgb(255, 255, 255)" stroke-width="70.00" stroke-opacity="1.00" stroke-linejoin="round"/>
<path d="M635.07,121.51 L620.25,134.63" fill="none" stroke="rgb(255, 255, 255)" stroke-width="70.00" stroke-opacity="1.00" stroke-linejoin="round"/>
<path d="M620.25,134.63" fill="none" stroke="rgb(255, 255, 255)" stroke-width="70.00" stroke-opacity="1.00" stroke-linejoin="round"/>
<path d="M520.33,171.89" fill="none" stroke="rgb(255, 255, 255)" stroke-width="70.00" stroke-opacity="1.00" stroke-linejoin="round"/>
<path d="M520.33,171.89 L571.14,157.07" fill="none" stroke="rgb(255, 255, 255)" stroke-width="70.00" stroke-opacity="1.00" stroke-linejoin="round"/>
<path d="M571.14,157.07" fill="none" stroke="rgb(255, 255, 255)" stroke-width="70.00" stroke-opacity="1.00" stroke-linejoin="round"/>
<path d="M571.14,157.07 L610.09,140.98" fill="none" stroke="rgb(255, 255, 255)" stroke-width="70.00" stroke-opacity="1.00" stroke-linejoin="round"/>
<path d="M610.09,140.98" fill="none" stroke="rgb(255, 255, 255)" stroke-width="70.00" stroke-opacity="1.00" stroke-linejoin="round"/>
<path d="M610.09,140.98 L550.81,103.73" fill="none" stroke="rgb(255, 255, 255)" stroke-width="70.00" stroke-opacity="1.00" stroke-linejoin="round"/>
<path d="M550.81,103.73" fill="none" stroke="rgb(255, 255, 255)" stroke-width="70.00" stroke-opacity="1.00" stroke-linejoin="round"/>
<path d="M550.81,103.73 L296.79,80.86" fill="none" stroke="rgb(255, 255, 255)" stroke-width="70.00" stroke-opacity="1.00" stroke-linejoin="round"/>
<path d="M296.79,80.86" fill="none" stroke="rgb(255, 255, 255)" stroke-width="70.00" stroke-opacity="1.00" stroke-linejoin="round"/>
<path d="M142.66,128.94" fill="none" stroke="rgb(255, 255, 255)" stroke-width="70.00" stroke-opacity="1.00" stroke-linejoin="round"/>
<path d="M494.83,207.02" fill="none" stroke="rgb(255, 255, 255)" stroke-width="17.00" stroke-opacity="1.00" stroke-linejoin="round"/>
<path d="M494.83,207.02 L519.63,231.40" fill="none" stroke="rgb(255, 255, 255)" stroke-width="17.00" stroke-opacity="1.00" stroke-linejoin="round"/>
<path d="M519.63,231.40" fill="none" stroke="rgb(255, 255, 255)" stroke-width="17.00" stroke-opacity="1.00" stroke-linejoin="round"/>
<path d="M519.63,231.40 L536.16,243.80" fill="none" stroke="rgb(255, 255, 255)" stroke-width="17.00" stroke-opacity="1.00" stroke-linejoin="round"/>
<path d="M536.16,243.80" fill="none" stroke="rgb(255, 255, 255)" stroke-width="17.00" stroke-opacity="1.00" stroke-linejoin="round"/>
<path d="M536.16,243.80 L555.17,256.61" fill="none" stroke="rgb(255, 255, 255)" stroke-width="17.00" stroke-opacity="1.00" stroke-linejoin="round"/>
<path d="M555.17,256.61" fill="none" stroke="rgb(255, 255, 255)" stroke-width="17.00" stroke-opacity="1.00" stroke-linejoin="round"/>
<path d="M555.17,256.61 L501.03,212.19" fill="none" stroke="rgb(255, 255, 255)" stroke-width="17.00" stroke-opacity="1.00" stroke-linejoin="round"/>
<path d="M501.03,212.19" fill="none" stroke="rgb(255, 255, 255)" stroke-width="17.00" stroke-opacity="1.00" stroke-linejoin="round"/>
<path d="M511.78,212.81" fill="none" stroke="rgb(255, 255, 255)" stroke-width="17.00" stroke-opacity="1.00" stroke-linejoin="round"/>
<path d="M511.78,212.81 L526.03,233.26" fill="none" stroke="rgb(255, 255, 255)" stroke-width="17.00" stroke-opacity="1.00" stroke-linejoin="round"/>
<path d="M526.03,233.26" fill="none" stroke="rgb(255, 255, 255)" stroke-width="17.00" stroke-opacity="1.00" stroke-linejoin="round"/>
<path d="M559.09,259.71" fill="none" stroke="rgb(255, 255, 255)" stroke-width="10.00" stroke-opacity="1.00" stroke-linejoin="round"/>
<path d="M559.09,259.71 L583.68,271.49" fill="none" stroke="rgb(255, 255, 255)" stroke-width="10.00" stroke-opacity="1.00" stroke-linejoin="round"/>
<path d="M583.68,271.49" fill="none" stroke="rgb(255, 255, 255)" stroke-width="10.00" stroke-opacity="1.00" stroke-linejoin="round"/>
<path d="M583.68,271.49 L558.88,256.20" fill="none" stroke="rgb(255, 255, 255)" stroke-width="10.00" stroke-opacity="1.00" stroke-linejoin="round"/>
<path d="M558.88,256.20" fill="none" stroke="rgb(255, 255, 255)" stroke-width="10.00" stroke-opacity="1.00" stroke-linejoin="round"/>
<path d="M586.36,272.93" fill="none" stroke="rgb(255, 255, 255)" stroke-width="7.00" stroke-opacity="1.00" stroke-linejoin="round"/>
<path d="M586.36,272.93 L596.69,276.03" fill="none" stroke="rgb(255, 255, 255)" stroke-width="7.00" stroke-opacity="1.00" stroke-linejoin="round"/>
<path d="M596.69,276.03" fill="none" stroke="rgb(255, 255, 255)" stroke-width="7.00" stroke-opacity="1.00" stroke-linejoin="round"/>
<path d="M597.11,274.79" fill="none" stroke="rgb(255, 255, 255)" stroke-width="5.00" stroke-opacity="1.00" stroke-linejoin="round"/>
<path d="M594.42,275.41 C594.42,275.41 603.20,278.93 603.20,278.93 C603.23,279.32 602.87,279.11 602.69,279.03 C600.46,278.20 596.07,276.34 593.90,275.31 C592.23,274.64 591.32,274.17 589.36,274.17 C589.36,274.17 601.76,276.03 601.76,276.03 C601.76,276.03 605.79,278.62 605.79,278.62 C602.00,278.75 600.74,278.21 600.52,278.10 C599.10,277.40 596.06,277.50 595.14,277.38 C595.14,277.38 595.04,277.07 595.04,277.07" fill="none" stroke="rgb(255, 255, 255)" stroke-width="5.00" stroke-opacity="1.00" stroke-linejoin="round"/>
<path d="M45.18,114.60" fill="none" stroke="rgb(255, 255, 255)" stroke-width="80.00" stroke-opacity="1.00" stroke-linejoin="round"/>
<path d="M45.18,114.60" fill="none" stroke="rgb(255, 255, 255)" stroke-width="80.00" stroke-opacity="1.00" stroke-linejoin="round"/>
<path d="M45.18,114.60 L477.69,174.66" fill="none" stroke="rgb(255, 255, 255)" stroke-width="80.00" stroke-opacity="1.00" stroke-linejoin="round"/>
<path d="M477.69,174.66" fill="none" stroke="rgb(255, 255, 255)" stroke-width="80.00" stroke-opacity="1.00" stroke-linejoin="round"/>
<path d="M446.83,177.96" fill="none" stroke="rgb(255, 255, 255)" stroke-width="80.00" stroke-opacity="1.00" stroke-linejoin="round"/>
<path d="M55.10,125.62" fill="none" stroke="rgb(255, 255, 255)" stroke-width="80.00" stroke-opacity="1.00" stroke-linejoin="round"/>
<path d="M55.10,125.62 L204.96,175.76" fill="none" stroke="rgb(255, 255, 255)" stroke-width="80.00" stroke-opacity="1.00" stroke-linejoin="round"/>
<path d="M204.96,175.76" fill="none" stroke="rgb(255, 255, 255)" stroke-width="80.00" stroke-opacity="1.00" stroke-linejoin="round"/>
<path d="M204.96,175.76 L392.84,184.02" fill="none" stroke="rgb(255, 255, 255)" stroke-width="80.00" stroke-opacity="1.00" stroke-linejoin="round"/>
<path d="M392.84,184.02" fill="none" stroke="rgb(255, 255, 255)" stroke-width="80.00" stroke-opacity="1.00" stroke-linejoin="round"/>
<path d="M392.84,184.02 L485.40,171.35" fill="none" stroke="rgb(255, 255, 255)" stroke-width="80.00" stroke-opacity="1.00" stroke-linejoin="round"/>
<path d="M485.40,171.35" fill="none" stroke="rgb(255, 255, 255)" stroke-width="80.00" stroke-opacity="1.00" stroke-linejoin="round"/>
<path d="M485.40,171.35 L584.02,147.66" fill="none" stroke="rgb(255, 255, 255)" stroke-width="80.00" stroke-opacity="1.00" stroke-linejoin="round"/>
<path d="M584.02,147.66" fill="none" stroke="rgb(255, 255, 255)" stroke-width="80.00" stroke-opacity="1.00" stroke-linejoin="round"/>
<path d="M584.02,147.66 L609.37,134.44" fill="none" stroke="rgb(255, 255, 255)" stroke-width="80.00" stroke-opacity="1.00" stroke-linejoin="round"/>
<path d="M609.37,134.44" fill="none" stroke="rgb(255, 255, 255)" stroke-width="80.00" stroke-opacity="1.00" stroke-linejoin="round"/>
<path d="M43.53,114.05" fill="none" stroke="rgb(255, 255, 255)" stroke-width="80.00" stroke-opacity="1.00" stroke-linejoin="round"/>
<path d="M321.90,42.98" fill="none" stroke="rgb(255, 255, 255)" stroke-width="80.00" stroke-opacity="1.00" stroke-linejoin="round"/>
<path d="M321.90,42.98 L453.72,50.00" fill="none" stroke="rgb(255, 255, 255)" stroke-width="80.00" stroke-opacity="1.00" stroke-linejoin="round"/>
<path d="M453.72,50.00" fill="none" stroke="rgb(255, 255, 255)" stroke-width="80.00" stroke-opacity="1.00" stroke-linejoin="round"/>
<path d="M453.72,50.00 L549.59,70.25" fill="none" stroke="rgb(255, 255, 255)" stroke-width="80.00" stroke-opacity="1.00" stroke-linejoin="round"/>
<path d="M549.59,70.25" fill="none" stroke="rgb(255, 255, 255)" stroke-width="80.00" stroke-opacity="1.00" stroke-linejoin="round"/>
<path d="M549.59,70.25 L471.90,53.31" fill="none" stroke="rgb(255, 255, 255)" stroke-width="80.00" stroke-opacity="1.00" stroke-linejoin="round"/>
<path d="M471.90,53.31" fill="none" stroke="rgb(255, 255, 255)" stroke-width="80.00" stroke-opacity="1.00" stroke-linejoin="round"/>
<path d="M471.90,53.31 L575.62,78.51" fill="none" stroke="rgb(255, 255, 255)" stroke-width="80.00" stroke-opacity="1.00" stroke-linejoin="round"/>
<path d="M575.62,78.51" fill="none" stroke="rgb(255, 255, 255)" stroke-width="80.00" stroke-opacity="1.00" stroke-linejoin="round"/>
<path d="M575.21,78.51" fill="none" stroke="rgb(255, 255, 255)" stroke-width="80.00" stroke-opacity="1.00" stroke-linejoin="round"/>
<path d="M575.21,78.51 L623.97,102.48" fill="none" stroke="rgb(255, 255, 255)" stroke-width="80.00" stroke-opacity="1.00" stroke-linejoin="round"/>
<path d="M623.97,102.48" fill="none" stroke="rgb(255, 255, 255)" stroke-width="80.00" stroke-opacity="1.00" stroke-linejoin="round"/>
<path d="M623.97,102.48 L633.06,113.64" fill="none" stroke="rgb(255, 255, 255)" stroke-width="80.00" stroke-opacity="1.00" stroke-linejoin="round"/>
<path d="M633.06,113.64" fill="none" stroke="rgb(255, 255, 255)" stroke-width="80.00" stroke-opacity="1.00" stroke-linejoin="round"/>
<path d="M633.06,113.64 L603.31,138.43" fill="none" stroke="rgb(255, 255, 255)" stroke-width="80.00" stroke-opacity="1.00" stroke-linejoin="round"/>
<path d="M603.31,138.43" fill="none" stroke="rgb(255, 255, 255)" stroke-width="80.00" stroke-opacity="1.00" stroke-linejoin="round"/>
<path d="M603.31,138.43 L544.63,160.74" fill="none" stroke="rgb(255, 255, 255)" stroke-width="80.00" stroke-opacity="1.00" stroke-linejoin="round"/>
<path d="M544.63,160.74" fill="none" stroke="rgb(255, 255, 255)" stroke-width="80.00" stroke-opacity="1.00" stroke-linejoin="round"/>
<path d="M544.63,160.74 L375.62,179.34" fill="none" stroke="rgb(255, 255, 255)" stroke-width="80.00" stroke-opacity="1.00" stroke-linejoin="round"/>
<path d="M375.62,179.34" fill="none" stroke="rgb(255, 255, 255)" stroke-width="80.00" stroke-opacity="1.00" stroke-linejoin="round"/>
<path d="M375.62,179.34 L208.26,158.68" fill="none" stroke="rgb(255, 255, 255)" stroke-width="80.00" stroke-opacity="1.00" stroke-linejoin="round"/>
<path d="M208.26,158.68" fill="none" stroke="rgb(255, 255, 255)" stroke-width="80.00" stroke-opacity="1.00" stroke-linejoin="round"/>
<path d="M242.22,115.56 C248.90,116.67 293.79,119.17 298.70,119.70 C301.89,120.05 323.97,123.13 328.52,123.58 C336.16,124.30 388.21,123.89 391.67,123.33 C398.86,122.13 404.39,122.30 406.39,121.67 C407.95,121.14 409.85,121.32 410.56,121.11 C410.76,121.05 412.47,119.55 413.06,119.44 C413.06,119.44 434.84,118.89 439.37,118.89 C452.22,118.89 453.62,118.29 456.39,118.33 C460.83,118.33 462.33,117.84 462.50,117.78 C463.98,117.24 470.56,117.22 470.83,117.22 C469.07,117.34 454.60,111.72 454.17,111.67 C448.76,110.94 434.02,111.35 432.78,111.11 C426.54,109.87 421.54,110.03 408.26,110.01 C392.87,110.00 364.29,110.11 362.22,109.17 C360.34,108.33 344.79,108.32 336.37,108.33 C333.32,108.33 318.51,108.52 315.28,107.22 C315.17,107.18 312.93,105.65 312.50,105.56 C311.25,105.56 302.47,104.35 298.61,104.44 C297.10,104.48 280.04,103.33 272.50,103.89 C266.06,104.39 251.66,107.25 244.64,108.35 C234.79,109.81 208.95,111.69 208.06,111.67" fill="none" stroke="rgb(255, 255, 255)" stroke-width="200.00" stroke-opacity="1.00" stroke-linejoin="round"/>
<path d="M87.65,123.46" fill="none" stroke="rgb(255, 255, 255)" stroke-width="120.00" stroke-opacity="1.00" stroke-linejoin="round"/>
<path d="M87.65,123.46 L166.05,147.53" fill="none" stroke="rgb(255, 255, 255)" stroke-width="120.00" stroke-opacity="1.00" stroke-linejoin="round"/>
<path d="M166.05,147.53" fill="none" stroke="rgb(255, 255, 255)" stroke-width="120.00" stroke-opacity="1.00" stroke-linejoin="round"/>
<path d="M166.05,147.53 L235.80,159.88" fill="none" stroke="rgb(255, 255, 255)" stroke-width="120.00" stroke-opacity="1.00" stroke-linejoin="round"/>
<path d="M235.80,159.88" fill="none" stroke="rgb(255, 255, 255)" stroke-width="120.00" stroke-opacity="1.00" stroke-linejoin="round"/>
<path d="M235.80,159.88 L311.73,165.43" fill="none" stroke="rgb(255, 255, 255)" stroke-width="120.00" stroke-opacity="1.00" stroke-linejoin="round"/>
<path d="M311.73,165.43" fill="none" stroke="rgb(255, 255, 255)" stroke-width="120.00" stroke-opacity="1.00" stroke-linejoin="round"/>
<path d="M77.78,111.73" fill="none" stroke="rgb(255, 255, 255)" stroke-width="120.00" stroke-opacity="1.00" stroke-linejoin="round"/>
<path d="M77.78,111.73 L153.09,83.33" fill="none" stroke="rgb(255, 255, 255)" stroke-width="120.00" stroke-opacity="1.00" stroke-linejoin="round"/>
<path d="M153.09,83.33" fill="none" stroke="rgb(255, 255, 255)" stroke-width="120.00" stroke-opacity="1.00" stroke-linejoin="round"/>
<path d="M153.09,83.33 L262.35,67.28" fill="none" stroke="rgb(255, 255, 255)" stroke-width="120.00" stroke-opacity="1.00" stroke-linejoin="round"/>
<path d="M262.35,67.28" fill="none" stroke="rgb(255, 255, 255)" stroke-width="120.00" stroke-opacity="1.00" stroke-linejoin="round"/>
<path d="M262.35,67.28 L358.64,64.20" fill="none" stroke="rgb(255, 255, 255)" stroke-width="120.00" stroke-opacity="1.00" stroke-linejoin="round"/>
<path d="M358.64,64.20" fill="none" stroke="rgb(255, 255, 255)" stroke-width="120.00" stroke-opacity="1.00" stroke-linejoin="round"/>
<path d="M358.64,64.20 L75.31,114.81" fill="none" stroke="rgb(255, 255, 255)" stroke-width="120.00" stroke-opacity="1.00" stroke-linejoin="round"/>
<path d="M75.31,114.81" fill="none" stroke="rgb(255, 255, 255)" stroke-width="120.00" stroke-opacity="1.00" stroke-linejoin="round"/>
<path d="M75.31,114.81 L485.19,100.00" fill="none" stroke="rgb(255, 255, 255)" stroke-width="120.00" stroke-opacity="1.00" stroke-linejoin="round"/>
<path d="M485.19,100.00" fill="none" stroke="rgb(255, 255, 255)" stroke-width="120.00" stroke-opacity="1.00" stroke-linejoin="round"/>
<path d="M485.19,100.00 L117.28,134.57" fill="none" stroke="rgb(255, 255, 255)" stroke-width="120.00" stroke-opacity="1.00" stroke-linejoin="round"/>
<path d="M117.28,134.57" fill="none" stroke="rgb(255, 255, 255)" stroke-width="120.00" stroke-opacity="1.00" stroke-linejoin="round"/>
<path d="M117.28,134.57 L256.79,161.11" fill="none" stroke="rgb(255, 255, 255)" stroke-width="120.00" stroke-opacity="1.00" stroke-linejoin="round"/>
<path d="M256.79,161.11" fill="none" stroke="rgb(255, 255, 255)" stroke-width="120.00" stroke-opacity="1.00" stroke-linejoin="round"/>
<path d="M256.79,161.11 L411.11,162.35" fill="none" stroke="rgb(255, 255, 255)" stroke-width="120.00" stroke-opacity="1.00" stroke-linejoin="round"/>
<path d="M411.11,162.35" fill="none" stroke="rgb(255, 255, 255)" stroke-width="120.00" stroke-opacity="1.00" stroke-linejoin="round"/>
<path d="M269.75,67.90" fill="none" stroke="rgb(255, 255, 255)" stroke-width="120.00" stroke-opacity="1.00" stroke-linejoin="round"/>
<path d="M269.75,67.90 L76.54,111.73" fill="none" stroke="rgb(255, 255, 255)" stroke-width="120.00" stroke-opacity="1.00" stroke-linejoin="round"/>
<path d="M76.54,111.73" fill="none" stroke="rgb(255, 255, 255)" stroke-width="120.00" stroke-opacity="1.00" stroke-linejoin="round"/>
<path d="M76.54,111.73 L546.91,116.05" fill="none" stroke="rgb(255, 255, 255)" stroke-width="120.00" stroke-opacity="1.00" stroke-linejoin="round"/>
<path d="M546.91,116.05" fill="none" stroke="rgb(255, 255, 255)" stroke-width="120.00" stroke-opacity="1.00" stroke-linejoin="round"/>
<path d="M77.16,112.35" fill="none" stroke="rgb(255, 255, 255)" stroke-width="120.00" stroke-opacity="1.00" stroke-linejoin="round"/>
<path d="M77.16,112.35 L141.98,88.27" fill="none" stroke="rgb(255, 255, 255)" stroke-width="120.00" stroke-opacity="1.00" stroke-linejoin="round"/>
<path d="M141.98,88.27" fill="none" stroke="rgb(255, 255, 255)" stroke-width="120.00" stroke-opacity="1.00" stroke-linejoin="round"/>
<path d="M141.98,88.27 L233.33,70.99" fill="none" stroke="rgb(255, 255, 255)" stroke-width="120.00" stroke-opacity="1.00" stroke-linejoin="round"/>
<path d="M233.33,70.99" fill="none" stroke="rgb(255, 255, 255)" stroke-width="120.00" stroke-opacity="1.00" stroke-linejoin="round"/>
<path d="M489.09,213.62 C476.38,215.47 445.27,219.74 425.98,221.79 C411.03,222.99 379.39,224.74 363.24,225.27 C347.26,225.57 315.29,225.35 299.36,224.84 C283.55,224.09 252.65,221.95 236.81,220.36 C221.07,218.52 190.24,214.12 175.48,211.62 C165.80,209.86 127.89,200.87 113.06,196.70 C102.92,193.61 90.63,189.24 83.02,186.31 C75.63,183.29 61.73,177.02 55.30,173.82 C47.78,169.87 34.63,161.28 28.57,156.33 C25.57,153.86 20.66,149.28 17.93,146.40 C15.44,143.74 10.81,136.89 9.04,133.31 C7.29,129.70 5.08,122.62 4.54,118.85 C4.06,115.27 5.05,107.92 6.09,104.46 C7.22,100.83 10.71,93.64 13.07,90.10 C16.53,84.98 28.08,74.13 34.69,69.27 C41.87,64.01 51.89,58.20 61.45,53.41 C68.22,50.24 82.70,44.08 90.30,41.14 C104.13,36.13 135.22,27.42 151.07,23.60 C170.50,19.41 197.34,14.88 212.78,12.65 C228.46,10.66 255.27,7.83 275.37,6.43 C291.17,5.56 323.03,4.48 338.83,4.29 C354.63,4.45 386.49,5.47 402.30,6.31 C422.40,7.68 449.22,10.46 464.92,12.43 C480.37,14.63 507.22,19.10 526.67,23.26 C542.53,27.05 573.67,35.70 587.52,40.69 C595.14,43.61 609.65,49.74 616.42,52.90 C626.01,57.68 636.05,63.47 643.26,68.71 C649.89,73.57 661.49,84.39 664.97,89.51 C667.34,93.04 670.87,100.22 672.01,103.86 C673.07,107.31 674.09,114.66 673.63,118.24 C673.11,122.01 670.93,129.10 669.19,132.71 C667.43,136.30 662.85,143.13 660.39,145.81 C655.45,151.12 643.97,160.71 636.81,165.37 C631.01,169.12 616.69,176.58 609.89,179.79 C602.73,182.96 587.75,188.93 579.98,191.68 C566.83,196.17 533.43,204.32 521.94,207.04" fill="none" stroke="rgb(0, 0, 0)" stroke-width="5.30" stroke-opacity="1.00" stroke-linejoin="round"/>
<path d="M491.22,215.04 Q544.34,274.13 617.90,283.64" fill="none" stroke="rgb(0, 0, 0)" stroke-width="5.00" stroke-opacity="1.00" stroke-linejoin="round"/>
<path d="M522.59,213.13 Q548.91,251.72 618.41,284.14" fill="none" stroke="rgb(0, 0, 0)" stroke-width="5.00" stroke-opacity="1.00" stroke-linejoin="round"/>
<path d="M519.00,207.02 C519.00,207.02 522.25,213.31 522.25,213.31 C522.25,213.31 522.25,213.59 522.25,213.59" fill="none" stroke="rgb(0, 0, 0)" stroke-width="5.00" stroke-opacity="1.00" stroke-linejoin="round"/>
</g>
</svg>
